<?xml version="1.0" standalone="yes"?>
<svg xmlns="http://www.w3.org/2000/svg" width="283" height="289">
<path style="fill:#bf3e48; stroke:none;" d="M0 0L0 289L283 289L283 0L0 0z"/>
<path style="fill:#aa3740; stroke:none;" d="M112 63C115.654 64.5188 119.158 63.3526 123 63.0895C127.638 62.7719 132.352 63 137 63C129.629 59.907 119.746 62.6674 112 63z"/>
<path style="fill:#ab3740; stroke:none;" d="M150 62C155.715 64.398 163.831 63 170 63C164.285 60.602 156.169 62 150 62z"/>
<path style="fill:#5b1d22; stroke:none;" d="M119 63C123.969 65.0851 130.65 64 136 64L170 64C165.031 61.9149 158.35 63 153 63L119 63z"/>
<path style="fill:#78272e; stroke:none;" d="M112 64C113.769 64.7789 115.036 64.9124 117 65C115.231 64.2211 113.964 64.0876 112 64z"/>
<path style="fill:#361214; stroke:none;" d="M117 64C118.506 64.683 119.315 64.8259 121 65C119.494 64.317 118.685 64.1741 117 64z"/>
<path style="fill:#000000; stroke:none;" d="M121 64.4637C113.147 65.8393 104.525 67.6762 98.0039 72.5579C83.4009 83.4897 84 100.567 84 117C84 128.774 83.6974 140.249 83.9853 152C84.3394 166.454 81.4327 185.192 89.9699 197.961C104.039 219.002 134.585 213.977 156 213.039C165.529 212.622 174.674 213.585 183.715 209.674C202.631 201.491 201 181.15 201 164C201 159.68 202.779 150.148 199.972 146.603C198.109 144.25 193.617 145.001 191 145L171 145C168.379 145 164.746 144.409 162.318 145.603C158.893 147.288 159.787 152.477 163.148 153.566C170.737 156.025 182.742 150.506 189.427 155.318C193.086 157.951 192 164.112 192 168C192 179.279 190.579 192.264 180 198.717C174.258 202.219 168.443 202.576 162 203.424C156.024 204.211 150.019 204 144 204C129.502 204 110.793 205.385 100.569 192.826C95.3932 186.469 94.6283 177.719 93.7145 170C92.4765 159.541 94.0179 149.387 93.7407 139C93.3348 123.786 89.9682 105.217 97.2886 91C105.982 74.1175 124.426 74 141 74C147.672 74 154.376 73.7059 161 74.5756C169.047 75.6323 175.07 75.5242 181.816 80.9012C186.416 84.5685 189.044 90.3897 190.402 96C191.005 98.4914 190.644 101.431 191.742 103.772C193.414 107.334 199.418 108.109 200.682 103.852C204.34 91.5364 196.885 75.7882 185.961 69.8804C177.035 65.0537 164.892 65.3938 155 64.9606C143.897 64.4745 132.089 62.5214 121 64.4637z"/>
<path style="fill:#130607; stroke:none;" d="M150 64C154.053 65.7008 158.665 64.7725 163 65.0903C167.746 65.4382 172.201 66.9004 177 67C168.656 62.892 159.041 64 150 64z"/>
<path style="fill:#79272d; stroke:none;" d="M170 64C171.769 64.7789 173.036 64.9124 175 65C173.231 64.2211 171.964 64.0876 170 64z"/>
<path style="fill:#6d2429; stroke:none;" d="M110.667 65.3333C110.222 65.7779 111.278 65.7222 111.333 65.6667C111.778 65.2222 110.722 65.2778 110.667 65.3333z"/>
<path style="fill:#321013; stroke:none;" d="M112 65C113.769 65.7789 115.036 65.9124 117 66C115.231 65.2211 113.964 65.0876 112 65z"/>
<path style="fill:#331114; stroke:none;" d="M172 65C173.506 65.683 174.315 65.8259 176 66C174.494 65.317 173.685 65.1741 172 65z"/>
<path style="fill:#75262c; stroke:none;" d="M176.667 65.3333C176.222 65.7778 177.278 65.7222 177.333 65.6667C177.778 65.2222 176.722 65.2777 176.667 65.3333z"/>
<path style="fill:#411518; stroke:none;" d="M106 67C107.846 67.4675 109.069 67.3013 111 67C108.956 66.2256 108.155 66.4078 106 67z"/>
<path style="fill:#45161a; stroke:none;" d="M177 66C178.248 66.6848 178.549 66.7488 180 67C178.752 66.3152 178.452 66.2512 177 66z"/>
<path style="fill:#852c33; stroke:none;" d="M180.667 66.3333C180.222 66.7778 181.278 66.7222 181.333 66.6667C181.778 66.2222 180.722 66.2778 180.667 66.3333z"/>
<path style="fill:#862b32; stroke:none;" d="M103 67C104.248 67.6848 104.548 67.7488 106 68C104.752 67.3152 104.451 67.2512 103 67z"/>
<path style="fill:#5f1f24; stroke:none;" d="M181 67C182.248 67.6848 182.548 67.7488 184 68C182.752 67.3152 182.452 67.2512 181 67z"/>
<path style="fill:#852b32; stroke:none;" d="M101.667 68.3333C101.222 68.7778 102.278 68.7223 102.333 68.6667C102.778 68.2222 101.722 68.2778 101.667 68.3333z"/>
<path style="fill:#200b0c; stroke:none;" d="M102 69C103.846 69.4675 105.069 69.3013 107 69C104.956 68.2256 104.155 68.4078 102 69z"/>
<path style="fill:#361114; stroke:none;" d="M182 68C183.248 68.6848 183.549 68.7488 185 69C183.752 68.3152 183.452 68.2512 182 68z"/>
<path style="fill:#401518; stroke:none;" d="M96 72C98.8883 72.4096 100.115 71.1529 102 69C99.7778 69.8102 98.0098 70.7386 96 72z"/>
<path style="fill:#5f1f23; stroke:none;" d="M185.667 69.3333C185.222 69.7778 186.278 69.7222 186.333 69.6667C186.778 69.2222 185.722 69.2778 185.667 69.3333z"/>
<path style="fill:#70252b; stroke:none;" d="M187.667 70.3333C187.222 70.7778 188.278 70.7222 188.333 70.6667C188.778 70.2222 187.722 70.2777 187.667 70.3333z"/>
<path style="fill:#912f36; stroke:none;" d="M189.667 71.3333C189.222 71.7778 190.278 71.7222 190.333 71.6667C190.778 71.2222 189.722 71.2778 189.667 71.3333z"/>
<path style="fill:#1a080a; stroke:none;" d="M190 72C191.48 75.166 193.168 76.9512 196 79C194.52 75.834 192.832 74.0488 190 72z"/>
<path style="fill:#280d0f; stroke:none;" d="M89 82C92.1975 79.4203 94.6809 76.3902 97 73C92.8607 74.9725 90.6491 77.7467 89 82z"/>
<path style="fill:#130608; stroke:none;" d="M127 74C130.699 75.552 135.017 75 139 75L161 75C157.301 73.448 152.983 74 149 74L127 74z"/>
<path style="fill:#1e0a0b; stroke:none;" d="M115 75C117.613 76.0977 120.164 75.9928 123 76C120.387 74.9023 117.835 75.0072 115 75z"/>
<path style="fill:#371215; stroke:none;" d="M123 75C124.506 75.683 125.315 75.8259 127 76C125.494 75.317 124.685 75.1741 123 75z"/>
<path style="fill:#6a2228; stroke:none;" d="M127 75C130.699 76.552 135.017 76 139 76L161 76C157.301 74.448 152.983 75 149 75L127 75z"/>
<path style="fill:#371115; stroke:none;" d="M161 75C162.769 75.7789 164.036 75.9124 166 76C164.231 75.2211 162.964 75.0876 161 75z"/>
<path style="fill:#1a090a; stroke:none;" d="M166 75C169.121 76.4009 172.589 76.7304 176 77C172.829 75.1003 169.646 75.0306 166 75z"/>
<path style="fill:#5c1e23; stroke:none;" d="M115 76C117.332 76.9845 119.457 76.9813 122 77C119.668 76.0155 117.543 76.0187 115 76z"/>
<path style="fill:#832b31; stroke:none;" d="M122 76C123.769 76.7789 125.036 76.9124 127 77C125.231 76.2211 123.964 76.0876 122 76z"/>
<path style="fill:#b13a43; stroke:none;" d="M127 76C130.699 77.552 135.017 77 139 77L161 77C157.301 75.448 152.983 76 149 76L127 76z"/>
<path style="fill:#822a31; stroke:none;" d="M161 76C162.769 76.7789 164.036 76.9124 166 77C164.231 76.2211 162.964 76.0876 161 76z"/>
<path style="fill:#5d1f23; stroke:none;" d="M166 76C168.052 76.8743 169.747 76.9528 172 77C169.948 76.1257 168.253 76.0472 166 76z"/>
<path style="fill:#2e0f12; stroke:none;" d="M108 78C110.393 78.7408 112.493 78.3022 115 78C112.477 77.0098 110.642 77.3831 108 78z"/>
<path style="fill:#a7363e; stroke:none;" d="M162 77C165.163 78.3274 168.586 77.9996 172 78C168.837 76.6726 165.414 77.0004 162 77z"/>
<path style="fill:#6e242a; stroke:none;" d="M172.667 77.3333C172.222 77.7778 173.278 77.7222 173.333 77.6667C173.778 77.2222 172.722 77.2778 172.667 77.3333z"/>
<path style="fill:#45161a; stroke:none;" d="M174 77C175.248 77.6848 175.549 77.7488 177 78C175.752 77.3152 175.452 77.2512 174 77z"/>
<path style="fill:#8a2d34; stroke:none;" d="M174 78C175.248 78.6848 175.549 78.7488 177 79C175.752 78.3152 175.452 78.2512 174 78z"/>
<path style="fill:#371115; stroke:none;" d="M177.667 78.3333C177.222 78.7778 178.278 78.7222 178.333 78.6667C178.778 78.2222 177.722 78.2778 177.667 78.3333z"/>
<path style="fill:#4e191d; stroke:none;" d="M105 80C106.809 80.5743 107.069 80.4653 109 80C107.341 79.5935 106.758 79.6914 105 80z"/>
<path style="fill:#5c1e22; stroke:none;" d="M178.667 79.3333C178.222 79.7778 179.278 79.7222 179.333 79.6667C179.778 79.2222 178.722 79.2778 178.667 79.3333z"/>
<path style="fill:#48171b; stroke:none;" d="M180.667 80.3333C180.222 80.7778 181.278 80.7222 181.333 80.6667C181.778 80.2222 180.722 80.2778 180.667 80.3333z"/>
<path style="fill:#4e191e; stroke:none;" d="M197.333 80.6667C197.278 80.7222 197.222 81.7778 197.667 81.3333C197.722 81.2778 197.778 80.2223 197.333 80.6667z"/>
<path style="fill:#79272e; stroke:none;" d="M99 89C101.87 86.6797 103.96 84.0769 106 81C102.276 82.8204 100.494 85.1544 99 89z"/>
<path style="fill:#250c0e; stroke:none;" d="M182.667 81.3333C182.222 81.7778 183.278 81.7222 183.333 81.6667C183.778 81.2222 182.722 81.2777 182.667 81.3333z"/>
<path style="fill:#2b0e11; stroke:none;" d="M88.3333 82.6667C88.2778 82.7222 88.2222 83.7778 88.6667 83.3333C88.7223 83.2777 88.7777 82.2223 88.3333 82.6667z"/>
<path style="fill:#8e2e36; stroke:none;" d="M183 82C183.936 83.9486 184.392 84.5502 186 86C185.064 84.0514 184.608 83.4498 183 82z"/>
<path style="fill:#531c20; stroke:none;" d="M198.333 82.6667C198.278 82.7222 198.222 83.7778 198.667 83.3333C198.722 83.2777 198.778 82.2223 198.333 82.6667z"/>
<path style="fill:#591d21; stroke:none;" d="M87.3333 83.6667C87.2778 83.7222 87.2222 84.7778 87.6667 84.3333C87.7223 84.2777 87.7778 83.2223 87.3333 83.6667z"/>
<path style="fill:#6a2227; stroke:none;" d="M199.333 84.6667C199.278 84.7222 199.222 85.7778 199.667 85.3333C199.722 85.2777 199.778 84.2223 199.333 84.6667z"/>
<path style="fill:#652126; stroke:none;" d="M86.3333 85.6667C86.2778 85.7222 86.2222 86.7778 86.6667 86.3333C86.7223 86.2777 86.7778 85.2223 86.3333 85.6667z"/>
<path style="fill:#8b2d34; stroke:none;" d="M186.333 86.6667C186.278 86.7222 186.222 87.7778 186.667 87.3333C186.722 87.2777 186.778 86.2223 186.333 86.6667z"/>
<path style="fill:#802a31; stroke:none;" d="M200.333 86.6667C200.278 86.7222 200.222 87.7778 200.667 87.3333C200.722 87.2777 200.778 86.2223 200.333 86.6667z"/>
<path style="fill:#74262c; stroke:none;" d="M85.3333 87.6667C85.2778 87.7222 85.2222 88.7778 85.6667 88.3333C85.7223 88.2777 85.7777 87.2223 85.3333 87.6667z"/>
<path style="fill:#5c1e23; stroke:none;" d="M187.333 87.6667C187.278 87.7222 187.222 88.7778 187.667 88.3333C187.722 88.2777 187.778 87.2223 187.333 87.6667z"/>
<path style="fill:#5c1e22; stroke:none;" d="M98.3333 88.6667C98.2778 88.7222 98.2222 89.7778 98.6667 89.3333C98.7223 89.2777 98.7777 88.2223 98.3333 88.6667z"/>
<path style="fill:#541c20; stroke:none;" d="M200 88L200 91C200.696 89.4463 200.696 89.5537 200 88z"/>
<path style="fill:#3f1517; stroke:none;" d="M85.3333 89.6667C85.2778 89.7222 85.2222 90.7778 85.6667 90.3333C85.7222 90.2778 85.7778 89.2222 85.3333 89.6667z"/>
<path style="fill:#4c191d; stroke:none;" d="M188.333 89.6667C188.278 89.7222 188.222 90.7778 188.667 90.3333C188.722 90.2777 188.778 89.2223 188.333 89.6667z"/>
<path style="fill:#571d21; stroke:none;" d="M97.3333 90.6667C97.2778 90.7222 97.2222 91.7778 97.6667 91.3333C97.7223 91.2777 97.7777 90.2223 97.3333 90.6667z"/>
<path style="fill:#642126; stroke:none;" d="M84.3333 91.6667C84.2779 91.7222 84.2222 92.7778 84.6667 92.3333C84.7223 92.2777 84.7777 91.2223 84.3333 91.6667z"/>
<path style="fill:#280d0f; stroke:none;" d="M96.3333 91.6667C96.2778 91.7222 96.2222 92.7778 96.6667 92.3333C96.7223 92.2777 96.7777 91.2223 96.3333 91.6667z"/>
<path style="fill:#9f343c; stroke:none;" d="M188 91L188 95C188.71 93.2405 188.71 92.7595 188 91z"/>
<path style="fill:#4a181b; stroke:none;" d="M201 91L201 95C201.71 93.2405 201.71 92.7595 201 91z"/>
<path style="fill:#7f2930; stroke:none;" d="M83 92L82 101C83.979 98.103 84.3552 95.2607 83 92z"/>
<path style="fill:#a3353d; stroke:none;" d="M97 92L96 99C97.4659 96.55 97.9653 94.7055 97 92z"/>
<path style="fill:#150608; stroke:none;" d="M84 93C83.4554 105.683 83 118.258 83 131C86.0858 123.646 83.692 112.932 84.0394 105C84.2198 100.878 85.6281 96.9164 84 93z"/>
<path style="fill:#5a1d22; stroke:none;" d="M96.3333 93.6667C96.2778 93.7222 96.2222 94.7778 96.6667 94.3333C96.7223 94.2777 96.7777 93.2223 96.3333 93.6667z"/>
<path style="fill:#4f191e; stroke:none;" d="M189.333 93.6667C189.278 93.7222 189.222 94.7778 189.667 94.3333C189.722 94.2778 189.778 93.2223 189.333 93.6667z"/>
<path style="fill:#70252a; stroke:none;" d="M202 94L202 105C203.431 101.59 203.431 97.41 202 94z"/>
<path style="fill:#943037; stroke:none;" d="M189 95L189 102C190.059 99.4657 190.059 97.5343 189 95z"/>
<path style="fill:#421519; stroke:none;" d="M190 95L190 102C191.059 99.4657 191.059 97.5343 190 95z"/>
<path style="fill:#220c0d; stroke:none;" d="M201 95L201 105C202.346 101.793 202.346 98.207 201 95z"/>
<path style="fill:#692227; stroke:none;" d="M95 96L95 100C95.7102 98.2405 95.7102 97.7595 95 96z"/>
<path style="fill:#2f1012; stroke:none;" d="M94 99L94 104C94.8299 101.969 94.8299 101.03 94 99z"/>
<path style="fill:#a8363f; stroke:none;" d="M81 100L81 129C83.2921 123.538 82.0004 115.887 82 110C81.9998 106.581 82.3283 103.166 81 100z"/>
<path style="fill:#99323a; stroke:none;" d="M95 100L95 109C96.2561 106.006 96.2561 102.994 95 100z"/>
<path style="fill:#571c21; stroke:none;" d="M82 101L82 151C82 160.932 81.1817 171.206 83 181C85.0153 175.381 83 166.152 83 160L83 120C83 114.113 84.2922 106.462 82 101z"/>
<path style="fill:#70242a; stroke:none;" d="M190.333 102.667C190.278 102.722 190.222 103.778 190.667 103.333C190.722 103.278 190.778 102.222 190.333 102.667z"/>
<path style="fill:#531b1f; stroke:none;" d="M94 104L94 109C94.8299 106.97 94.8299 106.031 94 104z"/>
<path style="fill:#70242a; stroke:none;" d="M191.333 104.667C191.278 104.722 191.222 105.778 191.667 105.333C191.722 105.278 191.778 104.222 191.333 104.667z"/>
<path style="fill:#1d0a0b; stroke:none;" d="M93 105L93 137C95.599 130.806 94.0004 121.686 94 115C93.9998 111.581 94.3283 108.166 93 105z"/>
<path style="fill:#8e2e35; stroke:none;" d="M199 108C200.949 107.064 201.55 106.608 203 105C201.051 105.936 200.45 106.392 199 108z"/>
<path style="fill:#4d191d; stroke:none;" d="M192 106C194.308 107.759 196.092 107.917 199 108C196.749 106.912 194.465 106.481 192 106z"/>
<path style="fill:#983139; stroke:none;" d="M194 108C195.769 108.779 197.036 108.912 199 109C197.231 108.221 195.964 108.088 194 108z"/>
<path style="fill:#77282d; stroke:none;" d="M94 109L94 169C95.8752 164.531 95 158.809 95 154L95 125C95 119.92 95.9806 113.72 94 109z"/>
<path style="fill:#1b090a; stroke:none;" d="M93 142L93 169C95.5408 162.945 95.5408 148.055 93 142z"/>
<path style="fill:#af3942; stroke:none;" d="M162 142C165.959 143.661 170.74 143 175 143L199 143C195.041 141.339 190.26 142 186 142L162 142z"/>
<path style="fill:#a2343d; stroke:none;" d="M81 143L81 175C83.599 168.806 82.0004 159.686 82 153C81.9998 149.581 82.3283 146.166 81 143z"/>
<path style="fill:#78262d; stroke:none;" d="M161 143C164.959 144.661 169.74 144 174 144L200 144C196.041 142.339 191.26 143 187 143L161 143z"/>
<path style="fill:#571c21; stroke:none;" d="M160 144L160 146C161.635 145.455 161.455 145.635 162 144L160 144z"/>
<path style="fill:#310f12; stroke:none;" d="M162 144C174.145 149.096 189.51 141.708 202 147C199.518 143.171 195.206 144 191 144L162 144z"/>
<path style="fill:#130607; stroke:none;" d="M83 146L83 177C84.3283 173.834 83.9998 170.419 84 167C84.0004 160.58 85.497 151.951 83 146z"/>
<path style="fill:#1d0a0c; stroke:none;" d="M159 146L159 152C159.951 149.715 159.951 148.285 159 146z"/>
<path style="fill:#49181b; stroke:none;" d="M202 146L202 178C204.599 171.806 203 162.686 203 156C203 152.581 203.328 149.166 202 146z"/>
<path style="fill:#8d2f36; stroke:none;" d="M158 147L158 152C158.83 149.969 158.83 149.031 158 147z"/>
<path style="fill:#100506; stroke:none;" d="M201 147L201 175C203.604 168.793 203.604 153.207 201 147z"/>
<path style="fill:#983139; stroke:none;" d="M203 147L203 175C205.604 168.793 205.604 153.207 203 147z"/>
<path style="fill:#832b31; stroke:none;" d="M159.333 152.667C159.278 152.722 159.222 153.778 159.667 153.333C159.722 153.278 159.778 152.222 159.333 152.667z"/>
<path style="fill:#140607; stroke:none;" d="M160 153C163.27 155.477 166.999 155 171 155L190 155C181.381 151.383 169.341 154.734 160 153z"/>
<path style="fill:#4f1a1e; stroke:none;" d="M161 155C168.888 158.31 181.449 156 190 156C182.112 152.69 169.551 155 161 155z"/>
<path style="fill:#943038; stroke:none;" d="M162 156C169.649 159.21 181.712 157 190 157C182.351 153.79 170.288 156 162 156z"/>
<path style="fill:#662127; stroke:none;" d="M190 156L190 180C192.349 174.403 192.349 161.597 190 156z"/>
<path style="fill:#1c090b; stroke:none;" d="M191 156L191 180C193.349 174.403 193.349 161.597 191 156z"/>
<path style="fill:#a8363f; stroke:none;" d="M189 157L189 181C191.349 175.403 191.349 162.597 189 157z"/>
<path style="fill:#521a1f; stroke:none;" d="M94 169L94 173C94.7102 171.241 94.7102 170.759 94 169z"/>
<path style="fill:#2a0d10; stroke:none;" d="M94 173L94 180C95.0595 177.466 95.0595 175.534 94 173z"/>
<path style="fill:#72252b; stroke:none;" d="M95 173L95 182C96.2561 179.006 96.2561 175.994 95 173z"/>
<path style="fill:#230b0d; stroke:none;" d="M201 175L201 185C202.346 181.793 202.346 178.207 201 175z"/>
<path style="fill:#2a0d10; stroke:none;" d="M84 178L84 184C84.9511 181.715 84.9511 180.285 84 178z"/>
<path style="fill:#842b32; stroke:none;" d="M202 178L202 184C202.951 181.715 202.951 180.285 202 178z"/>
<path style="fill:#2a0d10; stroke:none;" d="M190 180L189 187C190.466 184.55 190.965 182.706 190 180z"/>
<path style="fill:#99313a; stroke:none;" d="M83 181L83 185C83.7102 183.241 83.7102 182.759 83 181z"/>
<path style="fill:#6d2429; stroke:none;" d="M189.333 181.667C189.278 181.722 189.222 182.778 189.667 182.333C189.722 182.278 189.778 181.222 189.333 181.667z"/>
<path style="fill:#5e1e23; stroke:none;" d="M96 182L96 185C96.6961 183.446 96.6961 183.554 96 182z"/>
<path style="fill:#601f25; stroke:none;" d="M84.3333 184.667C84.2778 184.722 84.2222 185.778 84.6667 185.333C84.7222 185.278 84.7778 184.222 84.3333 184.667z"/>
<path style="fill:#8d2e35; stroke:none;" d="M188 184L188 187C188.696 185.446 188.696 185.554 188 184z"/>
<path style="fill:#622025; stroke:none;" d="M97.3333 185.667C97.2778 185.722 97.2222 186.778 97.6667 186.333C97.7222 186.278 97.7778 185.222 97.3333 185.667z"/>
<path style="fill:#77262d; stroke:none;" d="M201.333 185.667C201.278 185.722 201.222 186.778 201.667 186.333C201.722 186.278 201.778 185.222 201.333 185.667z"/>
<path style="fill:#220b0d; stroke:none;" d="M85 186L86 191C86.6514 188.766 86.3182 187.926 85 186z"/>
<path style="fill:#6b2228; stroke:none;" d="M98.3333 187.667C98.2778 187.722 98.2222 188.778 98.6667 188.333C98.7222 188.278 98.7778 187.222 98.3333 187.667z"/>
<path style="fill:#47171a; stroke:none;" d="M188.333 187.667C188.278 187.722 188.222 188.778 188.667 188.333C188.722 188.278 188.778 187.222 188.333 187.667z"/>
<path style="fill:#611f25; stroke:none;" d="M200 188L200 191C200.696 189.446 200.696 189.554 200 188z"/>
<path style="fill:#361114; stroke:none;" d="M98 189C98.6836 190.58 98.8048 190.777 100 192C99.3164 190.42 99.1952 190.223 98 189z"/>
<path style="fill:#551c21; stroke:none;" d="M187.333 189.667C187.278 189.722 187.222 190.778 187.667 190.333C187.722 190.278 187.778 189.222 187.333 189.667z"/>
<path style="fill:#7f2930; stroke:none;" d="M186.333 190.667C186.278 190.722 186.222 191.778 186.667 191.333C186.722 191.278 186.778 190.222 186.333 190.667z"/>
<path style="fill:#832a32; stroke:none;" d="M86.3333 191.667C86.2778 191.722 86.2222 192.778 86.6667 192.333C86.7222 192.278 86.7778 191.222 86.3333 191.667z"/>
<path style="fill:#250c0e; stroke:none;" d="M187 191C186.014 192.479 186 192.203 186 194C187.289 192.557 187.401 192.766 187 191z"/>
<path style="fill:#5e1e23; stroke:none;" d="M199.333 191.667C199.278 191.722 199.222 192.778 199.667 192.333C199.722 192.278 199.778 191.222 199.333 191.667z"/>
<path style="fill:#230b0c; stroke:none;" d="M100 192C100.684 193.58 100.805 193.777 102 195C101.316 193.42 101.195 193.223 100 192z"/>
<path style="fill:#822b31; stroke:none;" d="M87.3333 193.667C87.2778 193.722 87.2222 194.778 87.6667 194.333C87.7222 194.278 87.7778 193.222 87.3333 193.667z"/>
<path style="fill:#42161a; stroke:none;" d="M185 193C183.652 194.768 182.878 195.982 182 198C184.015 196.356 185.098 195.587 185 193z"/>
<path style="fill:#902f36; stroke:none;" d="M102 194C103.45 195.608 104.051 196.064 106 197C104.55 195.392 103.949 194.936 102 194z"/>
<path style="fill:#6d2329; stroke:none;" d="M198.333 194.667C198.278 194.722 198.222 195.778 198.667 195.333C198.722 195.278 198.778 194.222 198.333 194.667z"/>
<path style="fill:#852b32; stroke:none;" d="M88.3333 195.667C88.2778 195.722 88.2223 196.778 88.6667 196.333C88.7222 196.278 88.7778 195.222 88.3333 195.667z"/>
<path style="fill:#6e242a; stroke:none;" d="M197.333 196.667C197.278 196.722 197.222 197.778 197.667 197.333C197.722 197.278 197.778 196.222 197.333 196.667z"/>
<path style="fill:#953038; stroke:none;" d="M89.3333 197.667C89.2778 197.722 89.2222 198.778 89.6667 198.333C89.7222 198.278 89.7778 197.222 89.3333 197.667z"/>
<path style="fill:#6b2428; stroke:none;" d="M105.667 197.333C105.222 197.778 106.278 197.722 106.333 197.667C106.778 197.222 105.722 197.278 105.667 197.333z"/>
<path style="fill:#7a282e; stroke:none;" d="M178 198C179.809 198.574 180.069 198.465 182 198C180.341 197.594 179.758 197.691 178 198z"/>
<path style="fill:#74262c; stroke:none;" d="M107.667 198.333C107.222 198.778 108.278 198.722 108.333 198.667C108.778 198.222 107.722 198.278 107.667 198.333z"/>
<path style="fill:#a6363f; stroke:none;" d="M196 198C194.545 200.656 193.069 203.168 192 206C194.665 203.769 196.825 201.581 196 198z"/>
<path style="fill:#a0333d; stroke:none;" d="M90 199C90.9357 200.949 91.3924 201.55 93 203C92.0643 201.051 91.6076 200.45 90 199z"/>
<path style="fill:#4b191c; stroke:none;" d="M108.667 199.333C108.222 199.778 109.278 199.722 109.333 199.667C109.778 199.222 108.722 199.278 108.667 199.333z"/>
<path style="fill:#371215; stroke:none;" d="M176 201C177.58 200.316 177.777 200.195 179 199C177.42 199.684 177.223 199.805 176 201z"/>
<path style="fill:#672227; stroke:none;" d="M110 200C112.886 201.535 115.748 201.858 119 202C116.114 200.465 113.252 200.142 110 200z"/>
<path style="fill:#76272d; stroke:none;" d="M173 200C174.248 200.685 174.548 200.749 176 201C174.752 200.315 174.452 200.251 173 200z"/>
<path style="fill:#933037; stroke:none;" d="M119 201C121.613 202.098 124.165 201.993 127 202C124.387 200.902 121.835 201.007 119 201z"/>
<path style="fill:#98313a; stroke:none;" d="M161 201C162.769 201.779 164.036 201.912 166 202C164.231 201.221 162.964 201.088 161 201z"/>
<path style="fill:#77272c; stroke:none;" d="M166 201C168.052 201.874 169.747 201.953 172 202C169.948 201.126 168.253 201.047 166 201z"/>
<path style="fill:#45171a; stroke:none;" d="M172.667 201.333C172.222 201.778 173.278 201.722 173.333 201.667C173.778 201.222 172.722 201.278 172.667 201.333z"/>
<path style="fill:#1d0a0b; stroke:none;" d="M93 202C94.4498 203.608 95.0514 204.064 97 205C95.5502 203.392 94.9486 202.936 93 202z"/>
<path style="fill:#2f0f12; stroke:none;" d="M115 202C117.613 203.098 120.165 202.993 123 203C120.387 201.902 117.835 202.007 115 202z"/>
<path style="fill:#682227; stroke:none;" d="M123 202C124.769 202.779 126.036 202.912 128 203C126.231 202.221 124.964 202.088 123 202z"/>
<path style="fill:#8b2d34; stroke:none;" d="M128 202C131.699 203.552 136.017 203 140 203L161 203C157.301 201.448 152.983 202 149 202L128 202z"/>
<path style="fill:#4f191e; stroke:none;" d="M161 202C162.769 202.779 164.036 202.912 166 203C164.231 202.221 162.964 202.088 161 202z"/>
<path style="fill:#2e0f12; stroke:none;" d="M166 202C168.052 202.874 169.747 202.953 172 203C169.948 202.126 168.253 202.047 166 202z"/>
<path style="fill:#2d0e10; stroke:none;" d="M126 203C129.959 204.661 134.74 204 139 204L162 204C158.041 202.339 153.26 203 149 203L126 203z"/>
<path style="fill:#3f1518; stroke:none;" d="M96 205C97.4498 206.608 98.0515 207.064 100 208C98.5502 206.392 97.9486 205.936 96 205z"/>
<path style="fill:#7d282f; stroke:none;" d="M189 208C190.457 206.897 190.897 206.457 192 205C189.876 205.899 189.899 205.876 189 208z"/>
<path style="fill:#46171b; stroke:none;" d="M185 210L189 208C186.777 207.631 186.265 208.14 185 210z"/>
<path style="fill:#4c181d; stroke:none;" d="M100.667 208.333C100.222 208.778 101.278 208.722 101.333 208.667C101.778 208.222 100.722 208.278 100.667 208.333z"/>
<path style="fill:#70252a; stroke:none;" d="M101.667 209.333C101.222 209.778 102.278 209.722 102.333 209.667C102.778 209.222 101.722 209.278 101.667 209.333z"/>
<path style="fill:#6f242a; stroke:none;" d="M103.667 210.333C103.222 210.778 104.278 210.722 104.333 210.667C104.778 210.222 103.722 210.278 103.667 210.333z"/>
<path style="fill:#3d1417; stroke:none;" d="M105.667 210.333C105.222 210.778 106.278 210.722 106.333 210.667C106.778 210.222 105.722 210.278 105.667 210.333z"/>
<path style="fill:#4a181b; stroke:none;" d="M181 210C182.248 210.685 182.548 210.749 184 211C182.752 210.315 182.452 210.251 181 210z"/>
<path style="fill:#2a0e10; stroke:none;" d="M107 211C108.506 211.683 109.315 211.826 111 212C109.494 211.317 108.685 211.174 107 211z"/>
<path style="fill:#2c0f11; stroke:none;" d="M177 211C178.248 211.685 178.548 211.749 180 212C178.752 211.315 178.452 211.251 177 211z"/>
<path style="fill:#6f242a; stroke:none;" d="M180.667 211.333C180.222 211.778 181.278 211.722 181.333 211.667C181.778 211.222 180.722 211.278 180.667 211.333z"/>
<path style="fill:#632025; stroke:none;" d="M110 212C112.057 213.582 113.388 213.826 116 214C114.031 212.937 112.202 212.468 110 212z"/>
<path style="fill:#2a0d10; stroke:none;" d="M174 212C175.248 212.685 175.548 212.749 177 213C175.752 212.315 175.452 212.251 174 212z"/>
<path style="fill:#70252b; stroke:none;" d="M177 212C178.248 212.685 178.548 212.749 180 213C178.752 212.315 178.452 212.251 177 212z"/>
<path style="fill:#2e0f11; stroke:none;" d="M116 213C117.769 213.779 119.036 213.912 121 214C119.231 213.221 117.964 213.088 116 213z"/>
<path style="fill:#0f0506; stroke:none;" d="M151 213C156.469 215.295 164.099 214 170 214C164.531 211.705 156.901 213 151 213z"/>
<path style="fill:#5f1f23; stroke:none;" d="M170 213C172.332 213.985 174.457 213.981 177 214C174.668 213.015 172.543 213.019 170 213z"/>
<path style="fill:#9b323a; stroke:none;" d="M112 214C114.052 214.874 115.747 214.953 118 215C115.948 214.126 114.253 214.047 112 214z"/>
<path style="fill:#73252b; stroke:none;" d="M118 214C119.248 214.685 119.548 214.749 121 215C119.752 214.315 119.452 214.251 118 214z"/>
<path style="fill:#3f1518; stroke:none;" d="M121 214C125.72 215.981 131.92 215 137 215L168 215C163.28 213.019 157.08 214 152 214L121 214z"/>
<path style="fill:#932f37; stroke:none;" d="M120 215C124.72 216.981 130.92 216 136 216C147.588 216 160.693 217.692 172 215C167.485 213.381 160.899 215 156 215L120 215z"/>
</svg>
